<svg width="129" height="607" viewBox="0 0 129 607" fill="none" xmlns="http://www.w3.org/2000/svg">
<path d="M127.5 303.5C127.5 387.237 120.286 463.002 108.641 517.795C102.816 545.204 95.8992 567.284 88.266 582.476C84.4481 590.074 80.4886 595.873 76.4586 599.753C72.4347 603.628 68.4405 605.5 64.5 605.5C60.5595 605.5 56.5653 603.628 52.5414 599.753C48.5114 595.873 44.5519 590.074 40.734 582.476C33.1008 567.284 26.1837 545.204 20.3588 517.795C8.71427 463.002 1.5 387.237 1.5 303.5C1.5 219.763 8.71427 143.998 20.3588 89.2049C26.1837 61.7963 33.1008 39.7158 40.734 24.524C44.5519 16.9256 48.5114 11.1269 52.5414 7.24657C56.5653 3.37207 60.5595 1.5 64.5 1.5C68.4405 1.5 72.4347 3.37207 76.4586 7.24657C80.4886 11.1269 84.4481 16.9256 88.266 24.524C95.8992 39.7158 102.816 61.7963 108.641 89.2049C120.286 143.998 127.5 219.763 127.5 303.5Z" fill="white" stroke="#A5D9D5" stroke-width="3"/>
</svg>
