<svg width="60" height="106" viewBox="0 0 60 106" fill="none" xmlns="http://www.w3.org/2000/svg">
<path d="M0 0L60 0L60 106L30 91.9518L0 106L0 0Z" fill="#FFDF00"/>
<path fill-rule="evenodd" clip-rule="evenodd" d="M30 27C30 29.6264 29.4827 32.2272 28.4776 34.6537C27.4725 37.0802 25.9993 39.2849 24.1421 41.1421C22.285 42.9993 20.0802 44.4725 17.6537 45.4776C15.2272 46.4827 12.6264 47 10 47C12.6264 47 15.2272 47.5173 17.6537 48.5224C20.0802 49.5275 22.285 51.0007 24.1421 52.8579C25.9993 54.7151 27.4725 56.9198 28.4776 59.3463C29.4827 61.7729 30 64.3735 30 67C30 64.3735 30.5173 61.7729 31.5224 59.3463C32.5275 56.9198 34.0007 54.7151 35.8579 52.8579C37.715 51.0007 39.9198 49.5275 42.3463 48.5224C44.7728 47.5173 47.3736 47 50 47C44.6957 47 39.6086 44.8928 35.8579 41.1421C32.1071 37.3914 30 32.3043 30 27Z" fill="#EDBD01"/>
</svg>
