<svg width="48" height="48" viewBox="0 0 48 48" fill="none" xmlns="http://www.w3.org/2000/svg">
<path fill-rule="evenodd" clip-rule="evenodd" d="M10 0C4.47715 0 0 4.47715 0 10V38C0 43.5228 4.47715 48 10 48H38C43.5228 48 48 43.5229 48 38V10C48 4.47715 43.5229 0 38 0H10ZM37.2002 16.0371C36.2252 16.5246 35.2502 16.6871 34.1127 16.8496C35.2502 16.1996 36.0627 15.2246 36.3877 13.9246C35.4127 14.5746 34.2752 14.8996 32.9752 15.2246C32.0002 14.2496 30.5377 13.5996 29.0752 13.5996C25.6627 13.5996 23.0627 16.8496 23.8752 20.0996C19.4877 19.9371 15.5877 17.8246 12.8252 14.5746C11.3627 17.0121 12.1752 20.0996 14.4502 21.7246C13.6377 21.7246 12.8252 21.3996 12.0127 21.0746L12.0127 21.0746C12.0127 23.5121 13.8002 25.7871 16.2377 26.4371C15.4252 26.5996 14.6127 26.7621 13.8002 26.5996C14.4502 28.7121 16.4002 30.3371 18.8377 30.3371C16.8877 31.7996 13.9627 32.6121 11.2002 32.2871C13.6377 33.7496 16.4002 34.7246 19.3252 34.7246C29.2377 34.7246 34.7627 26.4371 34.4377 18.7996C35.5752 18.1496 36.5502 17.1746 37.2002 16.0371Z" fill="#012C3D"/>
</svg>
