<svg width="48" height="48" viewBox="0 0 48 48" fill="none" xmlns="http://www.w3.org/2000/svg">
<path fill-rule="evenodd" clip-rule="evenodd" d="M10 0C4.47715 0 0 4.47715 0 10V38C0 43.5228 4.47715 48 10 48H38C43.5228 48 48 43.5229 48 38V10C48 4.47715 43.5229 0 38 0H10ZM11.2002 17.1992C11.2002 13.8855 13.8865 11.1992 17.2002 11.1992H31.6002C34.9139 11.1992 37.6002 13.8855 37.6002 17.1992V31.5992C37.6002 34.9129 34.9139 37.5992 31.6002 37.5992H28.3824L28.3987 28.1656H31.657C31.95 28.1656 32.1968 27.9461 32.2313 27.6555L32.5917 24.6141C32.6325 24.2703 32.3638 23.968 32.0174 23.968H28.3824V21.4242C28.3824 20.2703 28.7028 19.4844 30.357 19.4844L31.8888 19.4836C32.2081 19.4836 32.4668 19.2242 32.4668 18.9055V16.3414C32.4668 16.0219 32.2079 15.7625 31.8885 15.7625H29.3925C26.3506 15.7625 24.268 17.6195 24.268 21.0297V23.968H21.8215C21.5013 23.968 21.242 24.2281 21.2432 24.5484L21.255 27.5891C21.2562 27.9078 21.5147 28.1648 21.8332 28.1648H24.2842L24.268 37.5992H17.2002C13.8865 37.5992 11.2002 34.9129 11.2002 31.5992V17.1992Z" fill="#012C3D"/>
</svg>
