<svg width="17" height="20" viewBox="0 0 17 20" fill="none" xmlns="http://www.w3.org/2000/svg">
<path d="M13.7546 11.9992C14.9966 11.9992 16.0034 13.006 16.0034 14.2481V15.1665C16.0034 15.7399 15.8242 16.2989 15.4908 16.7654C13.945 18.9286 11.4207 20.0003 8.00039 20.0003C4.5794 20.0003 2.05644 18.9282 0.514277 16.7638C0.182306 16.2979 0.00390625 15.7401 0.00390625 15.168V14.2481C0.00390625 13.006 1.01076 11.9992 2.25278 11.9992H13.7546ZM8.00039 0.00390625C10.7618 0.00390625 13.0004 2.24249 13.0004 5.00391C13.0004 7.76534 10.7618 10.0039 8.00039 10.0039C5.23894 10.0039 3.00037 7.76534 3.00037 5.00391C3.00037 2.24249 5.23894 0.00390625 8.00039 0.00390625Z" fill="#1C7690"/>
</svg>
