<svg width="60" height="106" viewBox="0 0 60 106" fill="none" xmlns="http://www.w3.org/2000/svg">
<path d="M0 0L60 0L60 106L30 91.9518L0 106L0 0Z" fill="#88D20F"/>
<path d="M0 0L60 0L60 106L30 91.9518L0 106L0 0Z" fill="#88D20F"/>
<path d="M30 31C38.8365 31 46 38.1634 46 47V58.2C46 60.851 43.851 63 41.2 63H36.4C35.5163 63 34.8 62.2837 34.8 61.4V51.8C34.8 50.9163 35.5163 50.2 36.4 50.2H43.6V47C43.6 39.4889 37.511 33.4 30 33.4C22.4889 33.4 16.4 39.4889 16.4 47V50.2H23.6C24.4836 50.2 25.2 50.9163 25.2 51.8V61.4C25.2 62.2837 24.4836 63 23.6 63H18.8C16.149 63 14 60.851 14 58.2V47C14 38.1634 21.1634 31 30 31Z" fill="#45690A"/>
</svg>
