<svg width="48" height="48" viewBox="0 0 48 48" fill="none" xmlns="http://www.w3.org/2000/svg">
<path fill-rule="evenodd" clip-rule="evenodd" d="M10 0C4.47715 0 0 4.47715 0 10V38C0 43.5228 4.47715 48 10 48H38C43.5228 48 48 43.5229 48 38V10C48 4.47715 43.5229 0 38 0H10ZM29.4129 10.4004H18.3629C16.9004 10.4004 15.9254 10.7254 15.1129 11.0504C14.3004 11.3754 13.4879 11.8629 12.6754 12.6754C11.8629 13.4879 11.5379 14.1379 11.0504 15.1129C10.7254 15.9254 10.5629 16.9004 10.4004 18.3629V29.4129C10.4004 30.8754 10.7254 31.8504 11.0504 32.6629C11.3754 33.4754 11.8629 34.2879 12.6754 35.1004C13.4879 35.9129 14.1379 36.2379 15.1129 36.7254C15.9254 37.0504 16.9004 37.2129 18.3629 37.3754H29.4129C30.8754 37.3754 31.8504 37.0504 32.6629 36.7254C33.4754 36.4004 34.2879 35.9129 35.1004 35.1004C35.9129 34.2879 36.2379 33.6379 36.7254 32.6629C37.0504 31.8504 37.2129 30.8754 37.3754 29.4129V18.3629C37.3754 16.9004 37.0504 15.9254 36.7254 15.1129C36.4004 14.3004 35.9129 13.4879 35.1004 12.6754C34.2879 11.8629 33.6379 11.5379 32.6629 11.0504C31.8504 10.7254 30.8754 10.5629 29.4129 10.4004ZM29.4129 12.8379H18.3629C17.0629 13.0004 16.4129 13.1629 15.9254 13.3254C15.2754 13.4879 14.7879 13.8129 14.3004 14.3004C14.1099 14.491 13.969 14.6816 13.8487 14.8816L13.7663 15.0254L13.6771 15.1965C13.6219 15.3059 13.5682 15.4191 13.5121 15.5379L13.443 15.684L13.3254 15.9254C13.302 15.9957 13.2753 16.0691 13.2467 16.1465L13.2401 16.1652C13.0701 16.6293 12.8379 17.2637 12.8379 18.3629V29.4129C13.0004 30.7129 13.1629 31.3629 13.3254 31.8504C13.4879 32.5004 13.8129 32.9879 14.3004 33.4754C14.6857 33.8609 15.071 34.0429 15.5365 34.2629L15.5382 34.2637C15.6612 34.3215 15.7897 34.3824 15.9254 34.4504C16.0008 34.4754 16.0801 34.5043 16.1651 34.5355C16.6296 34.7059 17.264 34.9379 18.3629 34.9379H29.4129C30.7129 34.7754 31.3629 34.6129 31.8504 34.4504C32.5004 34.2879 32.9879 33.9629 33.4754 33.4754C33.8605 33.0901 34.0428 32.7047 34.2627 32.2401L34.2637 32.2379C34.3218 32.1145 34.3826 31.9863 34.4504 31.8504L34.4836 31.7543L34.5357 31.6105C34.7057 31.1465 34.9379 30.5121 34.9379 29.4129V18.3629C34.7754 17.0629 34.6129 16.4129 34.4504 15.9254C34.2879 15.2754 33.9629 14.7879 33.4754 14.3004C33.4205 14.2457 33.3657 14.1949 33.3106 14.1473L33.2192 14.0723L33.1371 14.0098C32.8601 13.8062 32.5715 13.6698 32.2429 13.5146L32.2376 13.5121C32.1148 13.4543 31.9858 13.3934 31.8504 13.3254C31.775 13.3004 31.6957 13.2715 31.6107 13.2402C31.1462 13.0699 30.5118 12.8379 29.4129 12.8379ZM31.0379 18.3629C31.9354 18.3629 32.6629 17.6355 32.6629 16.7379C32.6629 15.8402 31.9354 15.1129 31.0379 15.1129C30.1404 15.1129 29.4129 15.8402 29.4129 16.7379C29.4129 17.6355 30.1404 18.3629 31.0379 18.3629ZM16.9004 23.8879C16.9004 19.9879 19.9879 16.9004 23.8879 16.9004C27.7879 16.9004 30.8754 19.9879 30.8754 23.8879C30.8754 27.7879 27.7879 30.8754 23.8879 30.8754C19.9879 30.8754 16.9004 27.7879 16.9004 23.8879ZM19.3379 23.8879C19.3379 26.4879 21.4504 28.4379 23.8879 28.4379C26.3254 28.4379 28.4379 26.3254 28.4379 23.8879C28.4379 21.2879 26.3254 19.3379 23.8879 19.3379C21.2879 19.3379 19.3379 21.4504 19.3379 23.8879Z" fill="#012C3D"/>
</svg>
