<?xml version="1.0" standalone="no"?>
<svg class="svg-icon" viewBox="0 0 40 40" style="" id="ConImageChange" xmlns="http://www.w3.org/2000/svg">
                            <path class="Icon" d="M20.0771 34.2529L11.7686 16.3887H28.3857L20.0752 34.2529H20.0771ZM17.3271 32.1528L2.0498 16.3896H9.99707L17.3271 32.1519V32.1528ZM22.835 32.1348L30.1572 16.3906H38.0889L22.835 32.1348ZM38.0596 14.7427H30.4541V6.89062L38.0557 14.7407L38.0596 14.7427ZM27.833 14.7427H12.3213L20.0771 6.07373L27.8311 14.7417L27.833 14.7427ZM9.7002 14.7427H2.0498L9.7002 6.84277V14.7427ZM28.8564 13.458L21.9014 5.68359H28.8584V13.46L28.8564 13.458ZM11.3018 13.458V5.68457H18.251L11.3076 13.459L11.3018 13.458Z" fill="#ffffff" id="ContainerImage"></path>
                            <defs>
                            <clipPath id="clip0_35181_1063">
                            <rect width="39.995" height="39.995" fill="white" transform="translate(0.00488281 -0.00109863)"></rect>
                            </clipPath>
                            </defs>
                            </svg>