<svg width="22" height="27" viewBox="0 0 22 27" fill="none" xmlns="http://www.w3.org/2000/svg">
<path fill-rule="evenodd" clip-rule="evenodd" d="M11.3138 0.00136713C11.1441 -5.55183e-05 10.9619 -2.39278e-05 10.764 1.03449e-05L10.6704 2.11333e-05H7.15L7.117 2.10141e-05C6.02486 1.52921e-05 5.15936 1.07621e-05 4.46173 0.0570087C3.74834 0.115295 3.14472 0.236903 2.59355 0.51774C1.69978 0.973139 0.973118 1.6998 0.517719 2.59357C0.236882 3.14474 0.115274 3.74837 0.0569878 4.46175C-1.01377e-05 5.15938 -5.60774e-06 6.02488 1.14302e-07 7.11702L2.33512e-07 7.15002V19.4928L1.14302e-07 19.5258C-5.60774e-06 20.618 -1.01377e-05 21.4835 0.0569878 22.1811C0.115274 22.8945 0.236882 23.4981 0.517719 24.0493C0.973118 24.9431 1.69978 25.6697 2.59355 26.1251C3.14472 26.406 3.74834 26.5276 4.46173 26.5859C5.15937 26.6428 6.0249 26.6428 7.11708 26.6428H7.15H14.4643H14.4972C15.5894 26.6428 16.4549 26.6428 17.1525 26.5859C17.8659 26.5276 18.4695 26.406 19.0207 26.1251C19.9145 25.6697 20.6411 24.9431 21.0965 24.0493C21.3774 23.4981 21.499 22.8945 21.5573 22.1811C21.6143 21.4835 21.6143 20.618 21.6143 19.5259V19.4928V11.289L21.6143 11.2055V11.2055C21.6143 10.8572 21.6144 10.563 21.6054 10.3007H15.2638H15.2334H15.2334C14.6992 10.3007 14.2534 10.3007 13.8892 10.2709C13.5093 10.2399 13.1526 10.1728 12.8154 10.0009C12.2979 9.7373 11.8772 9.3166 11.6136 8.79915C11.4417 8.46189 11.3746 8.10523 11.3436 7.72535C11.3138 7.36112 11.3138 6.91528 11.3138 6.38113V6.38111L11.3138 6.35068V0.00136713ZM21.3365 8.80068H15.2638C14.6914 8.80068 14.3072 8.8001 14.0113 8.77592C13.7242 8.75246 13.5869 8.71058 13.4964 8.66444C13.2611 8.5446 13.0699 8.35337 12.9501 8.11817C12.9039 8.02761 12.8621 7.89032 12.8386 7.6032C12.8144 7.30732 12.8138 6.92311 12.8138 6.35068V0.141155C13.2839 0.25836 13.7333 0.446793 14.1464 0.69998C14.6267 0.99432 15.0317 1.39944 15.6601 2.02807L15.7263 2.09421L17.6232 3.99111C17.6367 4.00469 17.6498 4.01878 17.6623 4.03335L19.8929 6.63579L19.9472 6.69914L19.9473 6.69916L19.9473 6.69917C20.4658 7.30394 20.8001 7.69379 21.0418 8.14039C21.1568 8.35295 21.2553 8.5737 21.3365 8.80068ZM7.03486 13.8291C6.62065 13.8291 6.28486 14.1649 6.28486 14.5791C6.28486 14.9933 6.62065 15.3291 7.03486 15.3291H14.5777C14.9919 15.3291 15.3277 14.9933 15.3277 14.5791C15.3277 14.1649 14.9919 13.8291 14.5777 13.8291H7.03486ZM7.03486 18.8576C6.62065 18.8576 6.28486 19.1934 6.28486 19.6076C6.28486 20.0218 6.62065 20.3576 7.03486 20.3576H12.0634C12.4776 20.3576 12.8134 20.0218 12.8134 19.6076C12.8134 19.1934 12.4776 18.8576 12.0634 18.8576H7.03486Z" fill="#A5D9D5"/>
</svg>
