<?xml version="1.0" standalone="no"?>
<svg class="svg-icon" viewBox="0 0 41 41" style="" id="ConImageChange" xmlns="http://www.w3.org/2000/svg">
                                                                      <path class="Icon" d="M29.0273 34.8828H12.9629C7.09389 34.8828 3.72754 31.516 3.72754 25.644V14.4009C3.72754 8.53188 7.09389 5.16699 12.9629 5.16699H29.0273C34.8993 5.16699 38.2656 8.53288 38.2656 14.4009V25.644C38.2706 31.516 34.9003 34.8828 29.0273 34.8828ZM10.7383 12.1831C10.5575 12.1823 10.3789 12.2224 10.2158 12.3003C10.0527 12.3782 9.90888 12.4917 9.7959 12.6328C9.69563 12.7563 9.62033 12.8987 9.5752 13.0513C9.53006 13.2038 9.51628 13.3638 9.5332 13.522C9.5494 13.6802 9.5968 13.8339 9.67285 13.9736C9.7489 14.1134 9.85147 14.2364 9.97559 14.3359C17.2756 20.2479 17.3401 20.2729 17.4551 20.3159C18.49 21.0451 19.7282 21.43 20.9941 21.416C22.2503 21.4334 23.4794 21.0514 24.5049 20.3257C24.6339 20.2817 24.7046 20.2579 32.0166 14.3379C32.2637 14.1347 32.4212 13.8421 32.4541 13.5239C32.487 13.2057 32.3935 12.8872 32.1934 12.6377C32.0803 12.4969 31.9363 12.3832 31.7734 12.3052C31.6106 12.2271 31.4326 12.1869 31.252 12.187C30.9746 12.1875 30.706 12.2828 30.4902 12.457L23.2432 18.2729C22.5958 18.7649 21.8012 19.0232 20.9883 19.0059C20.1745 19.0229 19.3781 18.7647 18.7295 18.2729L11.5 12.457C11.2847 12.282 11.0157 12.1869 10.7383 12.188V12.1831Z" fill="#000000" id="ContainerImage"></path>
                                                                      <defs>
                                                                      <clipPath id="clip0_35181_1276">
                                                                      <rect width="40" height="40" fill="#000000" transform="translate(0.99707 0.0239258)"></rect>
                                                                      </clipPath>
                                                                      </defs>
                                                                      </svg>