<svg width="1080" height="1081" viewBox="0 0 1080 1081" fill="none" xmlns="http://www.w3.org/2000/svg">
<path d="M1046.25 540.5C1046.25 820.094 819.594 1046.75 540 1046.75C260.406 1046.75 33.75 820.094 33.75 540.5C33.75 260.906 260.406 34.25 540 34.25C819.594 34.25 1046.25 260.906 1046.25 540.5Z" fill="#161E19"/>
<path fill-rule="evenodd" clip-rule="evenodd" d="M540 68C279.045 68 67.5 279.545 67.5 540.5C67.5 801.455 279.045 1013 540 1013C800.955 1013 1012.5 801.455 1012.5 540.5C1012.5 279.545 800.955 68 540 68ZM0 540.5C0 242.266 241.766 0.5 540 0.5C838.234 0.5 1080 242.266 1080 540.5C1080 838.734 838.234 1080.5 540 1080.5C241.766 1080.5 0 838.734 0 540.5Z" fill="white"/>
<path d="M586.306 310.375L625.667 373.669H649.546V548.249C634.158 561.282 615.04 567.274 595.963 565.044C581.307 563.657 566.835 560.389 552.823 555.302C543.062 551.955 533.143 547.951 523.119 543.707L518.868 540.181C668.02 422.857 463.447 127.187 288.737 350.12L356.963 384.307C478.3 224.309 583.735 465.77 418.104 492.964L411.858 579.448C488.901 588.473 544.583 653.859 509.578 741.179C484.912 794.551 414.587 803.457 370.136 781.403C343.895 766.102 324.267 736.039 307.578 706.634C259.977 628.936 215.053 461.587 106.627 509.401L114.867 531.993C187.868 515.855 209.7 624.095 234.262 681.83C257.301 740.462 283.646 810.211 336.863 847.625C438.099 919.944 594.861 845.235 587.618 699.222C589.477 677.826 587.549 656.223 581.95 635.689C584.154 636.168 586.254 636.765 588.458 637.184C608.812 641.212 629.675 640.439 649.756 634.912V855.156L723.23 900.28V373.669H1012.81L992.783 310.375H586.306Z" fill="white"/>
</svg>
