<svg width="48" height="48" viewBox="0 0 48 48" fill="none" xmlns="http://www.w3.org/2000/svg">
<path fill-rule="evenodd" clip-rule="evenodd" d="M10 0C4.47715 0 0 4.47715 0 10V38C0 43.5228 4.47715 48 10 48H38C43.5228 48 48 43.5229 48 38V10C48 4.47715 43.5229 0 38 0H10ZM14.4004 21.1854C14.4004 15.679 18.8801 11.1992 24.3866 11.1992C29.893 11.1992 34.3728 15.679 34.3729 21.1854C34.3729 23.4567 32.8073 26.778 29.7198 31.0571C27.4876 34.1507 25.2914 36.5951 25.199 36.6976L24.3866 37.5992L23.5742 36.6976C23.4818 36.5951 21.2857 34.1507 19.0535 31.0571C15.966 26.778 14.4004 23.4566 14.4004 21.1854ZM16.5874 21.1854C16.5874 24.5028 21.6357 31.0902 24.3866 34.306C27.1374 31.0902 32.1857 24.5028 32.1857 21.1854C32.1857 16.885 28.687 13.3863 24.3866 13.3863C20.0861 13.3863 16.5874 16.885 16.5874 21.1854ZM28.0095 21.1856C28.0095 23.1864 26.3874 24.8085 24.3866 24.8085C22.3857 24.8085 20.7636 23.1864 20.7636 21.1856C20.7636 19.1847 22.3857 17.5626 24.3866 17.5626C26.3874 17.5626 28.0095 19.1847 28.0095 21.1856Z" fill="#012C3D"/>
</svg>
