<?xml version="1.0" standalone="no"?>
<svg class="svg-icon" viewBox="0 0 41 41" style="" id="ConImageChange" xmlns="http://www.w3.org/2000/svg">
                                                                  <path class="Icon" d="M28.6163 33.9743C27.0494 33.9432 25.5047 33.5983 24.0733 32.9602C22.373 32.2236 20.7612 31.2981 19.2677 30.2012C18.7527 29.8142 18.2393 29.4292 17.7423 29.0222L15.3878 26.9223C15.3032 26.8694 15.2241 26.8078 15.1524 26.7383C15.0004 26.5853 14.8435 26.4483 14.6905 26.2963C13.2808 24.8783 11.9808 23.3556 10.8009 21.7412C9.71808 20.2631 8.7994 18.6715 8.06162 16.9943C7.44236 15.5537 7.10722 14.0069 7.07529 12.4392C7.07067 11.5197 7.24033 10.6076 7.57529 9.75125C7.934 8.86755 8.48341 8.07378 9.18369 7.4263C9.55465 7.02629 10.0012 6.70432 10.4981 6.47928C10.9961 6.25579 11.5336 6.13344 12.0792 6.1193C12.4704 6.11498 12.8572 6.20051 13.2101 6.3693C13.5879 6.5386 13.9127 6.80791 14.1485 7.14823L17.377 11.6993C17.6022 11.9995 17.7896 12.3267 17.9337 12.6733C18.0564 12.9414 18.1246 13.2315 18.1339 13.5263C18.1263 13.8754 18.0238 14.216 17.839 14.5122C17.6234 14.8732 17.3625 15.2046 17.0616 15.4982L16.004 16.5983C15.9295 16.671 15.8696 16.7571 15.8272 16.8522C15.7908 16.9496 15.7737 17.0533 15.7765 17.1573C15.7732 17.2646 15.7877 17.3717 15.8194 17.4743C15.8594 17.5913 15.9068 17.6743 15.9298 17.7563C16.3057 18.3897 16.7392 18.9873 17.2247 19.5413C17.8547 20.2613 18.5242 21.0012 19.2472 21.7412C19.3532 21.8482 19.4673 21.9542 19.5753 22.0592L22.2872 24.4452C22.5959 24.6746 22.9194 24.8831 23.256 25.0692C23.338 25.1002 23.4177 25.1433 23.5157 25.1833C23.6272 25.2233 23.7449 25.2421 23.8634 25.2383C23.9699 25.2425 24.0754 25.2222 24.1729 25.1792C24.2728 25.1417 24.3631 25.0814 24.4356 25.0032L25.4962 23.9583C25.7902 23.6507 26.127 23.3869 26.4962 23.1752C26.7935 22.9866 27.1382 22.8861 27.4903 22.8853C27.7841 22.8884 28.0748 22.9495 28.3448 23.0652C28.6869 23.2109 29.0119 23.3934 29.3145 23.6093L33.9366 26.8813C34.2694 27.1014 34.5334 27.4104 34.6993 27.7732C34.8457 28.1159 34.9215 28.4845 34.9229 28.8572C34.9241 29.2624 34.851 29.6644 34.7071 30.0432C34.6747 30.1593 34.629 30.271 34.5704 30.3763C34.3272 30.8947 34.0092 31.3748 33.627 31.8013C32.9976 32.5119 32.2176 33.0722 31.3429 33.4412C31.3269 33.4412 31.311 33.4533 31.295 33.4533C30.4556 33.7946 29.5585 33.9701 28.6524 33.9702L28.6163 33.9743Z" fill="#000000" id="ContainerImage"></path>
                                                                  <defs>
                                                                  <clipPath id="clip0_35181_1110">
                                                                  <rect width="39.998" height="39.998" fill="#000000" transform="translate(0.987305 0.0415039)"></rect>
                                                                  </clipPath>
                                                                  </defs>
                                                                  </svg>