<?xml version="1.0" standalone="no"?>
<svg class="svg-icon" viewBox="0 0 40 41" style="" id="ConImageChange" xmlns="http://www.w3.org/2000/svg">
                                                                                              <path class="Icon" d="M21.2128 37.248H20.7753C18.3561 37.2513 15.9954 36.5051 14.0175 35.112C12.0337 33.7257 10.5289 31.7585 9.70987 29.4811C9.3711 28.4947 9.17478 27.4649 9.12686 26.423V26.4072C9.03461 25.9777 9.03446 25.5334 9.12686 25.1039C9.21927 24.6745 9.40129 24.2695 9.66202 23.9159C10.1371 23.3314 10.8097 22.9404 11.5526 22.8161L13.1835 22.7289H28.8046L30.4355 22.8161C31.1789 22.939 31.851 23.3302 32.3251 23.9159C32.5864 24.2696 32.7701 24.6749 32.8632 25.1047C32.9563 25.5344 32.9567 25.979 32.8651 26.4091V26.423C32.8178 27.4649 32.6218 28.4947 32.2831 29.4811C31.4625 31.7579 29.9581 33.725 27.9755 35.113C25.9958 36.506 23.6335 37.2519 21.2128 37.248ZM20.9003 17.3891C19.9412 17.392 18.9912 17.2041 18.1054 16.8366C17.2195 16.469 16.4154 15.929 15.7401 15.248C15.0588 14.5722 14.5192 13.7678 14.1513 12.8815C13.7834 11.9952 13.595 11.0448 13.5976 10.0851C13.5951 9.12506 13.7834 8.17407 14.1513 7.28728C14.5191 6.40048 15.0588 5.59551 15.7401 4.91911C16.4154 4.23823 17.2195 3.69844 18.1054 3.33122C18.9912 2.964 19.9413 2.77652 20.9003 2.77995C21.8601 2.77706 22.8114 2.96479 23.6982 3.33196C24.5849 3.69912 25.3895 4.23859 26.0663 4.91911C26.7462 5.59638 27.2851 6.4016 27.6523 7.28825C28.0194 8.17491 28.2071 9.12547 28.205 10.0851C28.2071 11.0443 28.0194 11.9944 27.6523 12.8805C27.2851 13.7667 26.7462 14.5713 26.0663 15.248C25.39 15.9282 24.5861 16.4677 23.7001 16.8354C22.8141 17.203 21.8634 17.3916 20.9042 17.3901L20.9003 17.3891Z" fill="#000000" id="ContainerImage"></path>
                                                                                              <defs>
                                                                                              <clipPath id="clip0_35181_321">
                                                                                              <rect width="40" height="40" fill="black" transform="translate(0.99707 0.0137939)"></rect>
                                                                                              </clipPath>
                                                                                              </defs>
                                                                                              </svg>