<svg width="48" height="48" viewBox="0 0 48 48" fill="none" xmlns="http://www.w3.org/2000/svg">
<path fill-rule="evenodd" clip-rule="evenodd" d="M10 0C4.47715 0 0 4.47715 0 10V38C0 43.5228 4.47715 48 10 48H38C43.5228 48 48 43.5229 48 38V10C48 4.47715 43.5229 0 38 0H10ZM13.0481 30.2519L11.2002 36.8152L17.9687 35.0729C19.9297 36.1733 22.1465 36.7527 24.4103 36.7527C31.6757 36.7527 37.5864 30.8419 37.5864 23.5766C37.5864 16.3112 31.6757 10.4004 24.4103 10.4004C17.1449 10.4004 11.2341 16.3112 11.2341 23.5766C11.2341 25.9362 11.8598 28.2331 13.0481 30.2519ZM18.718 32.9221L18.3147 32.6758L14.4043 33.6824L15.4684 29.9028L15.1968 29.4798C14.0667 27.72 13.4693 25.6786 13.4693 23.5766C13.4693 17.5437 18.3774 12.6355 24.4103 12.6355C30.4432 12.6355 35.3513 17.5437 35.3513 23.5766C35.3513 29.6095 30.4432 34.5176 24.4103 34.5176C22.3962 34.5176 20.4278 33.9659 18.718 32.9221ZM19.854 17.3972L20.709 17.4438C20.8773 17.453 21.0258 17.5569 21.0922 17.7121L22.3377 20.6261C22.4042 20.7817 22.3763 20.9618 22.2655 21.0898L21.1814 22.344C21.0936 22.4457 21.0782 22.5905 21.1401 22.7098C22.5679 25.4601 25.1701 26.55 25.9469 26.823C26.0794 26.8695 26.226 26.8255 26.3117 26.7144L27.4461 25.2438C27.5723 25.0803 27.7947 25.0257 27.9823 25.1121L30.8718 26.444C31.06 26.5308 31.1629 26.7364 31.1195 26.939L30.983 27.5766C30.8291 28.296 30.4018 28.9323 29.782 29.3288C28.9995 29.8294 27.9853 30.0752 26.6959 29.7106C22.6948 28.5792 20.4321 25.9302 19.218 24.2745C18.0038 22.6189 17.5347 20.9633 17.8382 19.6112C18.0418 18.7044 18.7046 18.0085 19.119 17.6486C19.322 17.4722 19.5854 17.3825 19.854 17.3972Z" fill="#012C3D"/>
</svg>
