<svg xmlns="http://www.w3.org/2000/svg" viewBox="0 0 3477.89 3476.4"><defs><style>.cls-1{fill:#1c7690;}.cls-2{fill:#a6dad6;}.cls-3{fill:#78bdc4;}.cls-4{fill:#002c3d;}.cls-5{fill:none;}</style></defs><g id="Layer_2" data-name="Layer 2"><g id="Layer_5" data-name="Layer 5"><path class="cls-1" d="M1747.44,100.4a182.25,182.25,0,0,1,182.25,182.25c0,100.64-81.59,182.24-182.25,182.24s-182.23-81.6-182.23-182.24S1646.8,100.4,1747.44,100.4Z"/><path class="cls-1" d="M2484.77,232.33,2184.34,428.61l-107.45,70.2s-2.49,1.32-6.79,3.91c-19.53,11.73-76.45,49.61-106.5,108.25-36.67,71.54-31.42,122-31.42,122v289.49l-.83-.21a738.48,738.48,0,0,0-381.08,7.31l-.22.06V744.28s-1.22-76.88-28.89-139C1489.37,549,1423.75,508.19,1406.32,498c-2.77-1.62-4.33-2.47-4.33-2.47l-104.86-69.22-288.72-190.6c2.34-4.68,4.71-9.35,7.15-14a827.2,827.2,0,0,1,57.75-94.23c1.21-1.71,2.45-3.4,3.68-5.1l281.73,182.89,109,70.76,84.06,54.57s97.14,72.66,194.92,72.66,197.73-73.7,197.73-73.7l66.47-42.89L2125,313.09l293.72-189.55c1.27,1.77,2.54,3.52,3.81,5.3a828.12,828.12,0,0,1,55.65,90.63Q2481.53,225.88,2484.77,232.33Z"/><circle class="cls-2" cx="482.06" cy="1002.61" r="182.24" transform="translate(-567.76 634.52) rotate(-45)"/><path class="cls-2" d="M1230.25,1221.26c-2.2,2.25-4.4,4.53-6.57,6.8a731.94,731.94,0,0,0-178.45,319.09c-.64,2.46-1.29,4.94-1.91,7.43l-12.78-7.38L783.15,1404.37S716,1367,648.35,1359.91c-64.29-.61-132.11,35.43-150,45.66-3,1.69-4.57,2.68-4.57,2.68l-112.14,56.08L71.92,1619.18q-4.32-6.54-8.54-13.19a826.36,826.36,0,0,1-52.73-97.13c-.88-1.9-1.72-3.82-2.58-5.73l299.49-152.66,115.78-59,89.06-45.39s111.49-47.8,160.38-132.49,35-208.08,35-208.08l-3.93-79.32-6.71-135.59L679.88,341.75q3.25-.35,6.5-.65a822.86,822.86,0,0,1,106.32-2.88q7.23.28,14.45.69l19.75,358L834,825.39s-.09,2.7,0,7.53c.37,22.49,4.59,91.07,40.5,146.66,43.64,67.53,89.92,88.18,89.92,88.18l250,144.35Z"/><circle class="cls-3" cx="473.41" cy="2458.93" r="182.24" transform="translate(-1600.06 1054.96) rotate(-45)"/><path class="cls-3" d="M1232.35,2248.69l-14.72,8.48L971.9,2399.06s-66,39.51-105.91,94.5c-32,54.28-35.25,129.09-35.47,151.48,0,4.24,0,6.6,0,6.6l-7.43,123.83L802.32,3122.4c-5.23.31-10.46.6-15.71.8a827.31,827.31,0,0,1-110.48-2.89l-6.25-.63,17.61-337,6.79-129.77,5.14-98.49s14.34-120.47-34.54-205.14-162.69-134.38-162.69-134.38l-70.68-36.28-120.78-62L0,1957.17c.89-2,1.77-4,2.69-6a828.34,828.34,0,0,1,50.66-93.52q3.87-6.1,7.82-12.17l319.91,161.91,114.82,58.1s2.28,1.43,6.48,3.78c19.64,10.9,81.16,41.55,147.29,38.24,80.29-4,121.34-33.77,121.34-33.77l250.15-144.42,22.9-13.22q1.68,6.58,3.49,13.13a732.31,732.31,0,0,0,178.6,313Q1229.21,2245.53,1232.35,2248.69Z"/><path class="cls-2" d="M1729.37,3375.94a182.25,182.25,0,0,1-182.25-182.25c0-100.64,81.6-182.24,182.24-182.24a182.25,182.25,0,0,1,0,364.49Z"/><path class="cls-2" d="M2468.4,3240.6q-3.51,7-7.16,14a827.87,827.87,0,0,1-57.74,94.22c-1.22,1.71-2.46,3.4-3.68,5.1l-280.54-182.13-109-70.74L1925,3045.69S1827.89,2973,1730.11,2973s-197.72,73.7-197.72,73.7l-66.15,42.69L1352.17,3163,1058.12,3352.8c-1.27-1.77-2.55-3.52-3.8-5.3a825.12,825.12,0,0,1-55.66-90.63q-3.37-6.4-6.63-12.86l300.77-196.5,107.12-70s2.62-1.39,7.12-4.11c19.84-12,76.28-49.74,106.17-108.05,36.66-71.55,31.41-122,31.41-122V2436.64c3,.89,6.05,1.78,9.09,2.64a738.63,738.63,0,0,0,373,7.44v285.34s1.24,76.88,28.91,139c32.55,57.64,100.61,99.07,116,107.95,2,1.17,3.16,1.78,3.16,1.78l106,70Z"/><path class="cls-3" d="M3154.19,2564.74a182.23,182.23,0,0,1-249,66.7c-87.17-50.32-117-161.78-66.71-248.94a182.24,182.24,0,0,1,315.66,182.24Z"/><path class="cls-3" d="M3470.36,1973.1l-300.8,153.32-115.76,59L2966,2230.16s-111.49,47.81-160.38,132.48-35.05,208.08-35.05,208.08l3.94,79.51,6.72,135.6,17.27,348.65c-2.17.22-4.32.46-6.49.65a822.86,822.86,0,0,1-106.32,2.88c-4.83-.18-9.63-.42-14.46-.69l-19.73-357.84-7.1-128.63s.1-2.64,0-7.37c-.34-22.32-4.49-91.1-40.49-146.82-43.63-67.54-89.93-88.2-89.93-88.2L2263.79,2264l-1.77-1,.76-.73a733,733,0,0,0,196.7-326.52l235.78,136.13s67.21,37.38,134.81,44.46c62.91.6,129.16-33.87,148.8-44.95,3.77-2.11,5.81-3.38,5.81-3.38l110.85-55.43,311-155.5q4.32,6.54,8.55,13.18a829.44,829.44,0,0,1,52.73,97.14C3468.64,1969.27,3469.49,1971.19,3470.36,1973.1Z"/><path class="cls-3" d="M3162.31,927.37a182.25,182.25,0,0,1-66.7,248.95c-87.17,50.32-198.63,20.46-249-66.71S2826.2,911,2913.36,860.67A182.24,182.24,0,0,1,3162.31,927.37Z"/><path class="cls-3" d="M3477.89,1520.26c-.89,2-1.77,4-2.68,5.94a823.4,823.4,0,0,1-50.67,93.51c-2.56,4.09-5.18,8.13-7.83,12.17l-320.44-162.17L2982,1411.88s-2.48-1.54-7-4.07c-20.19-11.14-81.22-41.23-146.75-38-80.3,4-121.34,33.78-121.34,33.78l-244,140.86a732.44,732.44,0,0,0-191.62-330.59L2506,1078.37s66-39.51,105.91-94.52c32.89-55.74,35.4-133.13,35.46-153.18,0-3.15,0-4.89,0-4.89l7.53-125.6L2675.59,355c5.21-.31,10.45-.59,15.68-.81a829.06,829.06,0,0,1,110.49,2.91c2.09.19,4.17.42,6.26.63L2790.49,693l-6.78,129.77L2778.47,923s-14.34,120.46,34.55,205.15,162.69,134.38,162.69,134.38l70.14,36,120.77,62Z"/><path class="cls-2" d="M2560.39,321.24a182.24,182.24,0,1,1-248.72,67.55A182.24,182.24,0,0,1,2560.39,321.24Z"/><path class="cls-2" d="M3135.23,787.77q-.24,7.23-.64,14.45l-350.88,20.55-135.5,7.93-.84,0c-9-.14-89.71-.3-153.21,41-67.38,43.86-87.89,90.22-87.89,90.22l-141,246.1a732,732,0,0,0-333.11-185.59l-.83-.21.83-1.47,136.87-238.92s37.16-67.34,44-135c.35-58.73-29.87-120.29-43-144.15-3.59-6.59-5.9-10.3-5.9-10.3l-53.31-105.71L1851.84,71.33q6.54-4.36,13.17-8.6a829.67,829.67,0,0,1,96.94-53c1.91-.88,3.82-1.74,5.73-2.6l157.29,306,59.37,115.52,42.11,81.92s48.17,111.33,133,159.94,208.22,34.33,208.22,34.33l87.2-4.62L2790.49,693l340.84-18c.22,2.16.46,4.32.67,6.49A822.58,822.58,0,0,1,3135.23,787.77Z"/><circle class="cls-4" cx="1013.93" cy="475.11" r="182.24" transform="translate(-38.98 856.12) rotate(-45)"/><path class="cls-4" d="M1550.05,1029.16l.22.37-.22.06a732.92,732.92,0,0,0-319.8,191.67c-2.2,2.25-4.4,4.53-6.57,6.8l-9.28-16L1075.5,973.39s-39.74-65.84-94.87-105.59C929.72,838,860.94,833.49,834,832.92c-7.3-.17-11.54,0-11.54,0l-118.55-6.71L351.57,806.24c-.32-5.21-.62-10.44-.84-15.69a825.63,825.63,0,0,1,2.52-110.49c.18-2.08.41-4.16.61-6.25l343.31,16.78,129.73,6.34,92.34,4.51s120.51,13.94,205-35.23S1258.1,503.06,1258.1,503.06l39-76.71,61.59-121L1514.09,0c2,.89,4,1.76,6,2.67A825.21,825.21,0,0,1,1613.74,53q6.12,3.82,12.19,7.77L1467.71,376.07,1407.4,496.25s-.39.61-1.08,1.79c-6.85,11.68-44.33,79.18-40.43,152.14,4.29,80.28,34.18,121.22,34.18,121.22Z"/><path class="cls-1" d="M100.31,1735.09c-.34-100.65,81-182.52,181.62-182.86s182.51,81,182.85,181.63a182.24,182.24,0,0,1-181.62,182.85C182.51,1917.05,100.64,1835.74,100.31,1735.09Z"/><path class="cls-1" d="M1047.55,1929.28l-26.39.09-276.32.93S668,1931.79,606,1959.67c-51.32,29.22-89.65,86.63-103.59,109.65-3.75,6.19-5.73,9.89-5.73,9.89l-65.14,99.38L238.14,2473.66q-7-3.48-14-7.11a825.53,825.53,0,0,1-94.42-57.42c-1.73-1.2-3.42-2.44-5.12-3.66l186.14-288.86,70.35-109.17,50.13-77.79s72.32-97.4,72-195.17S428.84,1537,428.84,1537l-47.25-72.68-74-113.86-186.39-286.7c1.76-1.27,3.51-2.55,5.29-3.82a824,824,0,0,1,90.44-56c4.26-2.27,8.54-4.48,12.85-6.67l193.59,294.14L497.6,1404.3l.7,1.27c5.68,10.11,45.63,78,111.84,111.64,71.67,36.43,122.07,31,122.07,31l298.33-1,14.69,0c-.64,2.46-1.29,4.94-1.91,7.43a738.87,738.87,0,0,0,.74,361.57Q1045.74,1922.74,1047.55,1929.28Z"/><path class="cls-4" d="M916.53,3154.47A182.24,182.24,0,0,1,849,2905.75c50-87.34,161.38-117.58,248.71-67.55a182.24,182.24,0,0,1,67.55,248.72C1115.22,3174.26,1003.86,3204.49,916.53,3154.47Z"/><path class="cls-4" d="M1625.07,3404.38q-6.54,4.34-13.16,8.58a828.46,828.46,0,0,1-97,53.07c-1.91.88-3.81,1.73-5.73,2.6L1352.17,3163l-59.37-115.53-42.32-82.34s-48.19-111.32-133-159.93-208.2-34.33-208.2-34.33l-86.14,4.56-135.62,7.18-341.91,18.08c-.22-2.15-.45-4.32-.66-6.49a824.28,824.28,0,0,1-3.24-106.3q.26-7.23.64-14.45l352-20.61L828.71,2645s.63,0,1.81,0c12.76.12,90.59-.92,152.24-41.05,67.37-43.85,87.88-90.2,87.88-90.2l147-256.62,8.52-14.84q3.06,3.2,6.2,6.36a732.87,732.87,0,0,0,312.27,187.95c3,.89,6.05,1.78,9.09,2.64l-9.09,15.86-136.76,238.74s-37.14,67.33-44,135c-.34,59.08,30.24,121,43.19,144.58,3.47,6.31,5.68,9.87,5.68,9.87l53.52,106.14Z"/><path class="cls-1" d="M2556.09,3158.82c-87,50.61-198.55,21.13-249.17-65.87a182.24,182.24,0,0,1,65.86-249.17c87-50.62,198.55-21.13,249.17,65.87S2643.08,3108.2,2556.09,3158.82Z"/><path class="cls-1" d="M3125.13,2796.34c-.19,2.09-.42,4.18-.62,6.26l-343.25-16.77-129.73-6.35-92.4-4.51s-120.51-13.94-205,35.24-133.84,163.13-133.84,163.13l-39.4,77.43-61.59,121-155,304.61c-2-.89-4-1.76-6-2.66a825.67,825.67,0,0,1-93.68-50.35q-6.15-3.84-12.2-7.78l157.85-314.56,60.68-120.9s.25-.39.7-1.16c5.73-9.64,44.78-78.37,40.81-152.76-4.29-80.28-34.19-121.22-34.19-121.22l-150.44-258.55A732,732,0,0,0,2262,2263l.76-.73,1,1.74,139.09,239s39.73,65.84,94.86,105.59c50.92,29.81,119.75,34.32,146.7,34.88,7.27.17,11.49,0,11.49,0l118.61,6.71,352.25,19.93q.49,7.83.85,15.69A827.22,827.22,0,0,1,3125.13,2796.34Z"/><path class="cls-4" d="M3377,1742.09A182.25,182.25,0,0,1,3195.39,1925c-100.64.34-182.51-81-182.85-181.63s81-182.51,181.62-182.85S3376.68,1641.44,3377,1742.09Z"/><path class="cls-4" d="M3356.15,2413.41c-1.76,1.28-3.51,2.56-5.29,3.82a821.29,821.29,0,0,1-90.45,56c-4.25,2.27-8.53,4.48-12.83,6.67L3053.8,2185.43l-74.07-112.54s-.28-.53-.86-1.53c-6.16-10.92-46-78-111.68-111.38-71.67-36.43-122.07-31-122.07-31l-284,1a738.48,738.48,0,0,0,2.67-382.14l268.7-.9s76.89-1.5,138.88-29.37c51.36-29.25,89.72-86.73,103.63-109.71,3.73-6.15,5.7-9.83,5.7-9.83l65.17-99.43,193.33-295q7,3.5,14,7.1a828.3,828.3,0,0,1,94.42,57.44c1.72,1.2,3.41,2.43,5.12,3.66l-186.12,288.81-70.35,109.18-50.15,77.82s-72.33,97.4-72,195.18,74.37,197.47,74.37,197.47l47,72.37,74,113.87Z"/><path class="cls-5" d="M1926.75,2444.58v2.14l1.1-.26Zm536.15-900.09-5.75,3.32,6.62,0Zm-1.8,385.44c-.54,1.94-1.07,3.87-1.62,5.79m-188.2-721.82c-2-2-4-3.94-6-5.88"/></g></g></svg>