<svg width="316" height="316" viewBox="0 0 316 316" fill="none" xmlns="http://www.w3.org/2000/svg">
<g filter="url(#filter0_i_634_806)">
<rect x="41.5439" y="41.543" width="231.912" height="231.912" rx="42" fill="#1C7690"/>
</g>
<g filter="url(#filter1_f_634_806)">
<rect x="63.4624" y="63.4609" width="187.368" height="187.368" rx="17" fill="#78BDC4"/>
</g>
<g filter="url(#filter2_i_634_806)">
<rect x="63.4624" y="63.4609" width="187.368" height="187.368" rx="17" fill="#78BDC4"/>
</g>
<rect y="198.832" width="30.2313" height="7.52141" rx="3.76071" fill="#A5D9D5"/>
<rect y="211.832" width="30.2313" height="7.52141" rx="3.76071" fill="#A5D9D5"/>
<rect y="224.832" width="30.2313" height="7.52141" rx="3.76071" fill="#A5D9D5"/>
<rect y="237.832" width="30.2313" height="7.52141" rx="3.76071" fill="#A5D9D5"/>
<rect y="68" width="30.2313" height="7.52141" rx="3.76071" fill="#A5D9D5"/>
<rect y="81.832" width="30.2313" height="7.52141" rx="3.76071" fill="#A5D9D5"/>
<rect y="94.832" width="30.2313" height="7.52141" rx="3.76071" fill="#A5D9D5"/>
<rect y="107.832" width="30.2313" height="7.52141" rx="3.76071" fill="#A5D9D5"/>
<rect y="120.832" width="30.2313" height="7.52141" rx="3.76071" fill="#A5D9D5"/>
<rect y="133.832" width="30.2313" height="7.52141" rx="3.76071" fill="#A5D9D5"/>
<rect y="146.832" width="30.2313" height="7.52141" rx="3.76071" fill="#A5D9D5"/>
<rect y="159.832" width="30.2313" height="7.52141" rx="3.76071" fill="#A5D9D5"/>
<rect y="172.832" width="30.2313" height="7.52141" rx="3.76071" fill="#A5D9D5"/>
<rect y="185.832" width="30.2313" height="7.52141" rx="3.76071" fill="#A5D9D5"/>
<rect x="285" y="198.832" width="30.2313" height="7.52141" rx="3.76071" fill="#A5D9D5"/>
<rect x="285" y="211.832" width="30.2313" height="7.52141" rx="3.76071" fill="#A5D9D5"/>
<rect x="285" y="224.832" width="30.2313" height="7.52141" rx="3.76071" fill="#A5D9D5"/>
<rect x="285" y="237.832" width="30.2313" height="7.52141" rx="3.76071" fill="#A5D9D5"/>
<rect x="285" y="68" width="30.2313" height="7.52141" rx="3.76071" fill="#A5D9D5"/>
<rect x="285" y="81.832" width="30.2313" height="7.52141" rx="3.76071" fill="#A5D9D5"/>
<rect x="285" y="94.832" width="30.2313" height="7.52141" rx="3.76071" fill="#A5D9D5"/>
<rect x="285" y="107.832" width="30.2313" height="7.52141" rx="3.76071" fill="#A5D9D5"/>
<rect x="285" y="120.832" width="30.2313" height="7.52141" rx="3.76071" fill="#A5D9D5"/>
<rect x="285" y="133.832" width="30.2313" height="7.52141" rx="3.76071" fill="#A5D9D5"/>
<rect x="285" y="146.832" width="30.2313" height="7.52141" rx="3.76071" fill="#A5D9D5"/>
<rect x="285" y="159.832" width="30.2313" height="7.52141" rx="3.76071" fill="#A5D9D5"/>
<rect x="285" y="172.832" width="30.2313" height="7.52141" rx="3.76071" fill="#A5D9D5"/>
<rect x="285" y="185.832" width="30.2313" height="7.52141" rx="3.76071" fill="#A5D9D5"/>
<rect x="115.521" y="285" width="30.2313" height="7.52141" rx="3.76071" transform="rotate(90 115.521 285)" fill="#A5D9D5"/>
<rect x="102.521" y="285" width="30.2313" height="7.52141" rx="3.76071" transform="rotate(90 102.521 285)" fill="#A5D9D5"/>
<rect x="89.5215" y="285" width="30.2313" height="7.52141" rx="3.76071" transform="rotate(90 89.5215 285)" fill="#A5D9D5"/>
<rect x="76.5215" y="285" width="30.2313" height="7.52141" rx="3.76071" transform="rotate(90 76.5215 285)" fill="#A5D9D5"/>
<rect x="246.354" y="285" width="30.2313" height="7.52141" rx="3.76071" transform="rotate(90 246.354 285)" fill="#A5D9D5"/>
<rect x="232.521" y="285" width="30.2313" height="7.52141" rx="3.76071" transform="rotate(90 232.521 285)" fill="#A5D9D5"/>
<rect x="219.521" y="285" width="30.2313" height="7.52141" rx="3.76071" transform="rotate(90 219.521 285)" fill="#A5D9D5"/>
<rect x="206.521" y="285" width="30.2313" height="7.52141" rx="3.76071" transform="rotate(90 206.521 285)" fill="#A5D9D5"/>
<rect x="193.521" y="285" width="30.2313" height="7.52141" rx="3.76071" transform="rotate(90 193.521 285)" fill="#A5D9D5"/>
<rect x="180.521" y="285" width="30.2313" height="7.52141" rx="3.76071" transform="rotate(90 180.521 285)" fill="#A5D9D5"/>
<rect x="167.521" y="285" width="30.2313" height="7.52141" rx="3.76071" transform="rotate(90 167.521 285)" fill="#A5D9D5"/>
<rect x="154.521" y="285" width="30.2313" height="7.52141" rx="3.76071" transform="rotate(90 154.521 285)" fill="#A5D9D5"/>
<rect x="141.521" y="285" width="30.2313" height="7.52141" rx="3.76071" transform="rotate(90 141.521 285)" fill="#A5D9D5"/>
<rect x="128.521" y="285" width="30.2313" height="7.52141" rx="3.76071" transform="rotate(90 128.521 285)" fill="#A5D9D5"/>
<rect x="115.521" width="30.2313" height="7.52141" rx="3.76071" transform="rotate(90 115.521 0)" fill="#A5D9D5"/>
<rect x="102.521" width="30.2313" height="7.52141" rx="3.76071" transform="rotate(90 102.521 0)" fill="#A5D9D5"/>
<rect x="89.5215" width="30.2313" height="7.52141" rx="3.76071" transform="rotate(90 89.5215 0)" fill="#A5D9D5"/>
<rect x="76.5215" width="30.2313" height="7.52141" rx="3.76071" transform="rotate(90 76.5215 0)" fill="#A5D9D5"/>
<rect x="246.354" width="30.2313" height="7.52141" rx="3.76071" transform="rotate(90 246.354 0)" fill="#A5D9D5"/>
<rect x="232.521" width="30.2313" height="7.52141" rx="3.76071" transform="rotate(90 232.521 0)" fill="#A5D9D5"/>
<rect x="219.521" width="30.2313" height="7.52141" rx="3.76071" transform="rotate(90 219.521 0)" fill="#A5D9D5"/>
<rect x="206.521" width="30.2313" height="7.52141" rx="3.76071" transform="rotate(90 206.521 0)" fill="#A5D9D5"/>
<rect x="193.521" width="30.2313" height="7.52141" rx="3.76071" transform="rotate(90 193.521 0)" fill="#A5D9D5"/>
<rect x="180.521" width="30.2313" height="7.52141" rx="3.76071" transform="rotate(90 180.521 0)" fill="#A5D9D5"/>
<rect x="167.521" width="30.2313" height="7.52141" rx="3.76071" transform="rotate(90 167.521 0)" fill="#A5D9D5"/>
<rect x="154.521" width="30.2313" height="7.52141" rx="3.76071" transform="rotate(90 154.521 0)" fill="#A5D9D5"/>
<rect x="141.521" width="30.2313" height="7.52141" rx="3.76071" transform="rotate(90 141.521 0)" fill="#A5D9D5"/>
<rect x="128.521" width="30.2313" height="7.52141" rx="3.76071" transform="rotate(90 128.521 0)" fill="#A5D9D5"/>
<defs>
<filter id="filter0_i_634_806" x="41.5439" y="41.543" width="236.912" height="235.912" filterUnits="userSpaceOnUse" color-interpolation-filters="sRGB">
<feFlood flood-opacity="0" result="BackgroundImageFix"/>
<feBlend mode="normal" in="SourceGraphic" in2="BackgroundImageFix" result="shape"/>
<feColorMatrix in="SourceAlpha" type="matrix" values="0 0 0 0 0 0 0 0 0 0 0 0 0 0 0 0 0 0 127 0" result="hardAlpha"/>
<feOffset dx="5" dy="4"/>
<feGaussianBlur stdDeviation="125"/>
<feComposite in2="hardAlpha" operator="arithmetic" k2="-1" k3="1"/>
<feColorMatrix type="matrix" values="0 0 0 0 0 0 0 0 0 0 0 0 0 0 0 0 0 0 0.25 0"/>
<feBlend mode="normal" in2="shape" result="effect1_innerShadow_634_806"/>
</filter>
<filter id="filter1_f_634_806" x="53.4624" y="53.4609" width="207.368" height="207.367" filterUnits="userSpaceOnUse" color-interpolation-filters="sRGB">
<feFlood flood-opacity="0" result="BackgroundImageFix"/>
<feBlend mode="normal" in="SourceGraphic" in2="BackgroundImageFix" result="shape"/>
<feGaussianBlur stdDeviation="5" result="effect1_foregroundBlur_634_806"/>
</filter>
<filter id="filter2_i_634_806" x="63.4624" y="63.4609" width="187.368" height="187.367" filterUnits="userSpaceOnUse" color-interpolation-filters="sRGB">
<feFlood flood-opacity="0" result="BackgroundImageFix"/>
<feBlend mode="normal" in="SourceGraphic" in2="BackgroundImageFix" result="shape"/>
<feColorMatrix in="SourceAlpha" type="matrix" values="0 0 0 0 0 0 0 0 0 0 0 0 0 0 0 0 0 0 127 0" result="hardAlpha"/>
<feMorphology radius="10" operator="erode" in="SourceAlpha" result="effect1_innerShadow_634_806"/>
<feOffset/>
<feGaussianBlur stdDeviation="5"/>
<feComposite in2="hardAlpha" operator="arithmetic" k2="-1" k3="1"/>
<feColorMatrix type="matrix" values="0 0 0 0 0 0 0 0 0 0 0 0 0 0 0 0 0 0 0.1 0"/>
<feBlend mode="normal" in2="shape" result="effect1_innerShadow_634_806"/>
</filter>
</defs>
</svg>
