<svg xmlns="http://www.w3.org/2000/svg" xmlns:xlink="http://www.w3.org/1999/xlink" viewBox="0 0 294.15 294.14"><defs><style>.cls-1{fill:url(#linear-gradient);}.cls-2,.cls-3{fill:#fff;}.cls-3{fill-rule:evenodd;}</style><linearGradient id="linear-gradient" x1="147.08" y1="15.07" x2="147.08" y2="290.83" gradientUnits="userSpaceOnUse"><stop offset="0" stop-color="#001e00"/><stop offset="0.52" stop-color="#001b00"/><stop offset="0.96" stop-color="#001000"/><stop offset="1" stop-color="#000f00"/></linearGradient></defs><g id="Layer_2" data-name="Layer 2"><g id="Layer_1-2" data-name="Layer 1"><path class="cls-1" d="M285,147.07A137.88,137.88,0,1,1,147.08,9.19,137.88,137.88,0,0,1,285,147.07Z"/><path class="cls-2" d="M279.47,89.63H172.58l10.79,15.24h6.55v42a21.21,21.21,0,0,1-14.74,4,53.4,53.4,0,0,1-11.83-2.34c-2.67-.81-5.39-1.77-8.14-2.79-.09-.69-.1-.84-.19-1.54C194,115.58,138.46,46,91,99.2l18.69,8.23c33.27-38.52,62.18,19.61,16.76,26.16l-1.71,20.82c21.12,2.17,36.39,17.92,26.79,38.94-6.76,12.85-26,15-38.23,9.68-7.16-3.68-12.57-10.92-17.15-18-13-18.65-25.37-59-55.1-47.54l2.26,5.44C63.29,139,69.26,165.1,76,179c6.31,14.12,13.54,30.91,28.13,39.92,27.76,17.41,70.74-.58,68.75-35.73a38.86,38.86,0,0,0-1.55-15.3c.6.12,1.18.26,1.78.36a41.33,41.33,0,0,0,16.81-.54v53l20.14,10.87V104.87H285A144.55,144.55,0,0,0,279.47,89.63Z"/><path class="cls-3" d="M288,104.87a144.55,144.55,0,0,0-5.49-15.24A146.74,146.74,0,1,0,288,104.87ZM147.07,275.76A128.8,128.8,0,1,1,275.76,147.07,128.69,128.69,0,0,1,147.07,275.76Z"/></g></g></svg>